<svg xmlns="http://www.w3.org/2000/svg" viewBox="0 0 64 64" role="img" aria-label="Julzdesign favicon">
  <circle cx="8" cy="8" r="5.5" fill="#ff5f7e" />
  <circle cx="24" cy="8" r="5.5" fill="#d9f95f" />
  <circle cx="40" cy="8" r="5.5" fill="#57c7ff" />
  <circle cx="56" cy="8" r="5.5" fill="#8b4dff" />
  <path fill="#111827" d="M34 18h11v27.5c0 4.4-.8 7.9-2.5 10.5-2.2 3.4-6.3 5.1-12.2 5.1-4.5 0-8.3-1.1-11.4-3.2-3.1-2.1-5.3-5-6.6-8.6l10.3-3.8c.6 1.8 1.4 3.1 2.5 4 1 .9 2.4 1.3 4.2 1.3 1.7 0 2.9-.5 3.6-1.4.8-1 1.1-2.6 1.1-5V18Z" />
</svg>
